<svg xmlns="http://www.w3.org/2000/svg" xmlns:xlink="http://www.w3.org/1999/xlink"><symbol id="arrow-left" viewBox="0 0 16 16"><title>arrow-left</title><path d="M19,12H5m0,0,7,7M5,12l7-7" transform="translate(-4 -4)" fill="none" stroke="#fff" stroke-linecap="round" stroke-linejoin="round" stroke-width="2"/></symbol><symbol id="arrow-right" viewBox="0 0 16 16"><title>arrow-right</title><path d="M5,12H19m0,0L12,5m7,7-7,7" transform="translate(-4 -4)" fill="none" stroke="#fff" stroke-linecap="round" stroke-linejoin="round" stroke-width="2"/></symbol><symbol id="close-modal" viewBox="0 0 14 14"><title>close</title><path d="M18,6,6,18" transform="translate(-5 -5)" fill="none" stroke-linecap="round" stroke-linejoin="round" stroke-width="2"/><path d="M6,6,18,18" transform="translate(-5 -5)" fill="none" stroke-linecap="round" stroke-linejoin="round" stroke-width="2"/></symbol><symbol id="envelope" viewBox="0 0 22 18"><title>envelope</title><rect x="1" y="1" width="20" height="16" rx="2" fill="none" stroke="#000" stroke-width="2"/><path d="M6,8l6,4,6-4" transform="translate(-1 -3)" fill="none" stroke="#000" stroke-linecap="round" stroke-linejoin="round" stroke-width="2"/></symbol><symbol id="hamburger" viewBox="0 0 24 24">
<path d="M1 6H23" stroke="black" stroke-width="2" stroke-linecap="round"/>
<path d="M1 12H23" stroke="black" stroke-width="2" stroke-linecap="round"/>
<path d="M1 18H15" stroke="black" stroke-width="2" stroke-linecap="round"/>
</symbol><symbol id="linkedin" viewBox="0 0 24 24"><title>linkedin</title><path d="M0,12A12,12,0,1,1,12,24,12,12,0,0,1,0,12Z" fill="#0077b5" fill-rule="evenodd"/><path d="M8.66,7.41A1.41,1.41,0,0,0,7.14,6,1.42,1.42,0,0,0,5.6,7.41,1.4,1.4,0,0,0,7.1,8.82h0A1.41,1.41,0,0,0,8.66,7.41ZM8.48,9.94H5.76v8.17H8.48Zm6.68-.19c1.79,0,3.13,1.17,3.13,3.67v4.69H15.57V13.74c0-1.1-.4-1.85-1.38-1.85a1.51,1.51,0,0,0-1.4,1,2,2,0,0,0-.08.67v4.56H10s0-7.4,0-8.17h2.72V11.1A2.68,2.68,0,0,1,15.16,9.75Z" fill="#fff" fill-rule="evenodd"/></symbol><symbol id="map-pin-link" viewBox="0 0 16.67 20"><title>map-pin-link</title><path d="M17.5,8.33c0,5.84-7.5,10.84-7.5,10.84s-7.5-5-7.5-10.84a7.5,7.5,0,0,1,15,0Z" transform="translate(-1.67 0)" fill="none" stroke="#000" stroke-linecap="round" stroke-linejoin="round" stroke-width="1.67"/><path d="M10,10.83a2.5,2.5,0,1,0-2.5-2.5A2.5,2.5,0,0,0,10,10.83Z" transform="translate(-1.67 0)" fill="none" stroke="#000" stroke-linecap="round" stroke-linejoin="round" stroke-width="1.67"/></symbol><symbol id="search-submit" viewBox="0 0 16.67 16.67"><title>search-submit</title><path d="M9.17,15.83A6.67,6.67,0,1,0,2.5,9.17,6.66,6.66,0,0,0,9.17,15.83Z" transform="translate(-1.67 -1.67)" fill="none" stroke="#919191" stroke-linecap="round" stroke-linejoin="round" stroke-width="1.67"/><path d="M17.5,17.5l-3.62-3.62" transform="translate(-1.67 -1.67)" fill="none" stroke="#919191" stroke-linecap="round" stroke-linejoin="round" stroke-width="1.67"/></symbol><symbol id="search" viewBox="0 0 20 20"><title>search</title><path d="M11,19a8,8,0,1,0-8-8A8,8,0,0,0,11,19Z" transform="translate(-2 -2)" fill="none" stroke="#000" stroke-linecap="round" stroke-linejoin="round" stroke-width="2"/><path d="M21,21l-4.35-4.35" transform="translate(-2 -2)" fill="none" stroke="#000" stroke-linecap="round" stroke-linejoin="round" stroke-width="2"/></symbol><symbol id="triangle-down" viewBox="0 0 24 24">
<path d="M12 14L8 10H16L12 14Z" fill="black"/>
</symbol><symbol id="x" viewBox="0 0 24 24">
<path d="M18 6L6 18" stroke-width="2" stroke-linecap="round" stroke-linejoin="round"/>
<path d="M6 6L18 18" stroke-width="2" stroke-linecap="round" stroke-linejoin="round"/>
</symbol><symbol id="youtube" viewBox="0 0 24 24"><title>youtube</title><path d="M0,12A12,12,0,1,1,12,24,12,12,0,0,1,0,12Z" fill="#d83933" fill-rule="evenodd"/><path d="M18.13,9A1.63,1.63,0,0,0,17,7.87a37.9,37.9,0,0,0-5-.27,37.9,37.9,0,0,0-5,.27A1.63,1.63,0,0,0,5.87,9,17.33,17.33,0,0,0,5.6,12.2a17.33,17.33,0,0,0,.27,3.16A1.63,1.63,0,0,0,7,16.53a37.9,37.9,0,0,0,5,.27,37.9,37.9,0,0,0,5-.27,1.63,1.63,0,0,0,1.13-1.17,17.33,17.33,0,0,0,.27-3.16A17.33,17.33,0,0,0,18.13,9Z" fill="#fff" fill-rule="evenodd"/><path d="M10.8,14.4v-4l3.2,2Z" fill="red" fill-rule="evenodd"/></symbol></svg>