<svg xmlns="http://www.w3.org/2000/svg" width="92" height="64" fill="none" viewBox="0 0 92 64"><g clip-path="url(#clip0)"><path fill="#1D1D1B" d="M20.087 26.785h.122c1.283 0 2.449.452 3.498 1.356a1.006 1.006 0 01.437.767.774.774 0 01-.423.693.737.737 0 01-.35.093h-.042a.94.94 0 01-.71-.384 3.693 3.693 0 00-2.396-.923h-.15a3.626 3.626 0 00-2.396.936 4.084 4.084 0 00-.654.745 3.651 3.651 0 00-.58 1.916v.142c.005.748.25 1.476.699 2.078v.014a.945.945 0 00-.194-.021 1.028 1.028 0 00-.7.284c-.187.18-.299.424-.31.682v.099a5.12 5.12 0 01-1.1-3.154v-.12a5.154 5.154 0 011.199-3.274c.236-.284.5-.543.789-.774a5.237 5.237 0 013.261-1.155zm-3.178 7.635h.107c.215 0 .446.132.69.397.669.58 1.527.9 2.416.904h.079c.956 0 1.821-.365 2.597-1.096a.772.772 0 01.538-.205c.367 0 .628.197.782.59.011.058.018.116.02.174v.064c0 .256-.143.495-.43.717a5.356 5.356 0 01-3.445 1.356 5.36 5.36 0 01-3.504-1.198c-.369-.3-.567-.532-.596-.693a1.349 1.349 0 01-.021-.229.765.765 0 01.388-.666.704.704 0 01.38-.115zm9.963-6.882v9.037a.759.759 0 01-.476.692.733.733 0 01-.323.071h-.009a.805.805 0 01-.77-.547.772.772 0 01-.036-.22v-9.026a.768.768 0 01.469-.693.759.759 0 01.309-.07h.061a.786.786 0 01.7.446.67.67 0 01.075.31zm6.12 0v.064c0 .326-.186.573-.559.738a1.46 1.46 0 01-.336.036h-4.992a.02.02 0 01-.007-.005.019.019 0 01-.005-.015v-.787a1.032 1.032 0 00-.38-.788h5.505c.325 0 .57.173.738.54a.885.885 0 01.035.224l.002-.007zm0 .667v8.34a.787.787 0 01-.786.774h-.021c-.35 0-.614-.19-.772-.568a1.2 1.2 0 01-.034-.32V28.6a.02.02 0 01.005-.007.02.02 0 01.015-.006h.807a1.02 1.02 0 00.778-.377l.009-.005zm1.874-1.42h.065c.328 0 .575.185.743.554.023.11.035.222.035.334v7.821a.02.02 0 01-.006.015.02.02 0 01-.015.005h-.794a1.059 1.059 0 00-.792.377v-8.34c0-.321.175-.565.542-.73a.923.923 0 01.222-.036zm0 8.95h6.197a.774.774 0 01.7.47.785.785 0 01-.481 1.079.789.789 0 01-.222.035h-6.19a.792.792 0 01-.772-.767v-.064a.763.763 0 01.453-.682.671.671 0 01.311-.071h.004zm.682-8.95h5.502c.314 0 .558.168.73.504.033.09.052.184.056.28v.023c0 .346-.192.61-.573.765a1.224 1.224 0 01-.324.037h-4.994c-.003 0-.006 0-.008-.002a.02.02 0 01-.013-.02v-.803a1.002 1.002 0 00-.38-.774l.004-.01zm.4 4.468h5.072c.392 0 .66.206.802.618.01.06.015.122.016.184 0 .384-.208.644-.624.782a.983.983 0 01-.187.021h-5.072a.02.02 0 01-.02-.012.02.02 0 010-.009V31.28a.019.019 0 01-.001-.015.02.02 0 01.004-.007.02.02 0 01.007-.004h.003zm12.342-4.468h.064a.775.775 0 01.7.447.666.666 0 01.078.313v.078c0 .246-.15.492-.451.74l-4.132 4.104v4.092c0 .312-.175.55-.525.717a.905.905 0 01-.31.05c-.328 0-.577-.173-.745-.52a.765.765 0 01-.043-.254V32.12a.935.935 0 01.416-.724c2.988-2.97 4.49-4.456 4.505-4.454a.744.744 0 01.442-.156zm-4.584 0h.064c.307 0 .546.165.717.497a.76.76 0 01.058.242v2.364l-1.607 1.599v-3.935a.77.77 0 01.467-.693.756.756 0 01.3-.074zm1.399 5.491c.072 0 .183.087.337.262 2.347 2.316 3.533 3.493 3.557 3.531.076.117.12.251.13.39v.116c0 .303-.17.54-.51.71a.95.95 0 01-.307.05c-.273 0-.54-.161-.804-.483-1.75-1.72-2.639-2.604-2.669-2.65a.452.452 0 01-.079-.234v-1.243a.528.528 0 01.287-.426l.058-.023zm5.904-5.491h4.557a.777.777 0 01.7.419c.067.117.102.25.1.384v3.828a1.025 1.025 0 00-.756-.37h-.086a1.037 1.037 0 00-.757.37V28.39H51.13c-.467 0-.758-.206-.875-.618a.916.916 0 01-.014-.156v-.064c0-.322.181-.566.544-.731a.923.923 0 01.224-.036zm4.547 4.468a.788.788 0 01.736.497c.043.096.065.2.063.305v4.468a.778.778 0 01-.55.767.771.771 0 01-.221.036h-.07c-.31 0-.549-.168-.716-.504a.905.905 0 01-.055-.327v-4.433a.786.786 0 01.524-.752.816.816 0 01.292-.057h-.003zm.649-4.468h3.894a.788.788 0 01.771.767v.07a.742.742 0 01-.264.555.86.86 0 01-.631.213h-3.379l-.008-.001a.02.02 0 01-.007-.005.017.017 0 01-.005-.006.018.018 0 010-.009v-.838a.997.997 0 00-.368-.74l-.003-.006zm8.402 0h.43a.818.818 0 01.863.808c0 .364-.198.622-.59.774a.965.965 0 01-.222.028h-2.33a.79.79 0 01-.772-.767v-.064a.774.774 0 01.48-.703c.075-.029.152-.05.23-.064.773-.01 1.41-.014 1.911-.012zm-2.623 1.45a1.087 1.087 0 00.855.373h.744a.024.024 0 01.01.009.025.025 0 01.003.012v7.946a.764.764 0 01-.468.692.716.716 0 01-.303.071h-.064c-.328 0-.575-.18-.742-.54a.9.9 0 01-.037-.227l.002-8.337zm1.85 3.103h1.261c.358 0 .616.187.775.56a.95.95 0 01.037.264c0 .318-.175.561-.525.73a1.047 1.047 0 01-.35.051h-1.19c-.015 0-.022 0-.022-.014v-1.57c0-.014.005-.021.013-.021h.001zm1.994-4.462h.014a2.957 2.957 0 011.41.783c.123.102.234.219.33.347.39.51.606 1.128.62 1.768v.163c0 .766-.313 1.474-.936 2.125a3.419 3.419 0 01-1.137.703c-.091.027-.19.055-.301.084.17-.183.268-.42.278-.668v-.078a1.008 1.008 0 00-.509-.852c.243-.083.46-.23.625-.426a1.447 1.447 0 00.357-1.112 1.44 1.44 0 00-.587-1.013 1.636 1.636 0 00-.388-.22.998.998 0 00.509-.838v-.085a1.048 1.048 0 00-.285-.68zm18.824-.091h.044a.976.976 0 01.748.426l2.273 2.251c-.472.47-.71.72-.71.753a.914.914 0 00-.15.483v.156c-1.916-1.876-2.875-2.825-2.875-2.847a.86.86 0 01-.108-.391v-.064a.768.768 0 01.468-.693.756.756 0 01.31-.074zm-.778 1.442l1.607 1.599v6.71a.773.773 0 01-.554.754.568.568 0 01-.188.036h-.13a.778.778 0 01-.62-.37.72.72 0 01-.122-.397l.007-8.332zm6.16-.753v2.251c-1.122 1.133-1.7 1.699-1.734 1.697a.762.762 0 01-.381.122h-.086c-.325 0-.574-.18-.745-.54a1.37 1.37 0 01-.03-.255.976.976 0 01.43-.754c.81-.809 1.66-1.65 2.547-2.521zm1.013-.693h.042c.336 0 .585.18.747.54a.88.88 0 01.035.191v9.078a.741.741 0 01-.4.625.674.674 0 01-.36.108h-.094a.779.779 0 01-.659-.405.8.8 0 01-.101-.399v-8.93a.783.783 0 01.538-.761.66.66 0 01.252-.043v-.004z"/><path fill="#D31216" d="M0 16.326v15.892l10.545-9.862L0 16.326z"/><path fill="#E73231" d="M10.545 22.356L0 32.217h10.545v-9.86z"/><path fill="#B71918" d="M0 32.217l10.545 9.861v-9.86H0z"/><path fill="#515151" d="M0 48.11l10.545-6.032L0 32.218V48.11z"/><path fill="#BF1826" d="M0 16.326l10.545 6.03L13.898 8.38 0 16.326z"/><path fill="#ED6869" d="M13.898 8.38l13.897 4.114V.434L13.897 8.38z"/><path fill="#E83E3F" d="M27.795.435v12.059l14.2-3.939-14.2-8.12z"/><path fill="#E84342" d="M10.545 22.356l8.625-4.932-5.273-9.044-3.352 13.976z"/><path fill="#E73231" d="M13.898 8.38l5.272 9.044 8.625-4.93L13.897 8.38z"/><path fill="#5A5B5C" d="M27.795 64l14.2-8.119-14.2-3.94V64z"/><path fill="#ABAEAF" d="M55.588 48.11l-10.545-6.032-3.048 13.803 13.593-7.77z"/><path fill="#5D6061" d="M36.419 47.009l5.576 8.872 3.048-13.803-8.624 4.931z"/><path fill="#333" d="M27.795 51.941l14.2 3.94-5.577-8.872-8.623 4.932z"/><path fill="#A9A9A9" d="M27.795 51.941l-13.898 4.113L27.796 64V51.941z"/><path fill="#353535" d="M0 48.11l13.898 7.944-3.353-13.976L0 48.11z"/><path fill="#5F6160" d="M10.545 42.078l3.352 13.976 5.273-9.045-8.625-4.93z"/><path fill="#575656" d="M19.17 47.009l-5.273 9.045 13.898-4.113-8.625-4.932z"/><path fill="#A9A9A9" d="M82.076 35.712l-7.674-7.163-6.83 7.177 14.504-.014z"/><path fill="#EA5C5C" d="M41.995 8.555l-14.2 3.939 8.623 4.93 5.577-8.869z"/><path fill="#B71918" d="M41.995 8.555l-5.576 8.87 8.624 4.931-3.048-13.8z"/></g><defs><clipPath id="clip0"><path fill="#fff" d="M0 0h92v64H0z"/></clipPath></defs></svg>