<svg id="Слой_1" data-name="Слой 1" xmlns="http://www.w3.org/2000/svg" viewBox="0 0 24 24"><title>linkedin</title><path d="M0,12A12,12,0,1,1,12,24,12,12,0,0,1,0,12Z" fill="#0077b5" fill-rule="evenodd"/><path d="M8.66,7.41A1.41,1.41,0,0,0,7.14,6,1.42,1.42,0,0,0,5.6,7.41,1.4,1.4,0,0,0,7.1,8.82h0A1.41,1.41,0,0,0,8.66,7.41ZM8.48,9.94H5.76v8.17H8.48Zm6.68-.19c1.79,0,3.13,1.17,3.13,3.67v4.69H15.57V13.74c0-1.1-.4-1.85-1.38-1.85a1.51,1.51,0,0,0-1.4,1,2,2,0,0,0-.08.67v4.56H10s0-7.4,0-8.17h2.72V11.1A2.68,2.68,0,0,1,15.16,9.75Z" fill="#fff" fill-rule="evenodd"/></svg>