<svg id="Слой_1" data-name="Слой 1" xmlns="http://www.w3.org/2000/svg" viewBox="0 0 24 24"><title>youtube</title><path d="M0,12A12,12,0,1,1,12,24,12,12,0,0,1,0,12Z" fill="#d83933" fill-rule="evenodd"/><path d="M18.13,9A1.63,1.63,0,0,0,17,7.87a37.9,37.9,0,0,0-5-.27,37.9,37.9,0,0,0-5,.27A1.63,1.63,0,0,0,5.87,9,17.33,17.33,0,0,0,5.6,12.2a17.33,17.33,0,0,0,.27,3.16A1.63,1.63,0,0,0,7,16.53a37.9,37.9,0,0,0,5,.27,37.9,37.9,0,0,0,5-.27,1.63,1.63,0,0,0,1.13-1.17,17.33,17.33,0,0,0,.27-3.16A17.33,17.33,0,0,0,18.13,9Z" fill="#fff" fill-rule="evenodd"/><path d="M10.8,14.4v-4l3.2,2Z" fill="red" fill-rule="evenodd"/></svg>